<mxfile host="app.diagrams.net" modified="2024-04-08T03:39:51.386Z" agent="Mozilla/5.0 (Windows NT 10.0; Win64; x64) AppleWebKit/537.36 (KHTML, like Gecko) Chrome/123.0.0.0 Safari/537.36" etag="WVbKhCtVwT6H3dtrXKb-" version="24.2.2" type="github">
  <diagram name="第 1 页" id="vKyOZpu00KVVWq0q7L-a">
    <mxGraphModel dx="1400" dy="707" grid="1" gridSize="10" guides="1" tooltips="1" connect="1" arrows="1" fold="1" page="1" pageScale="1" pageWidth="827" pageHeight="1169" math="0" shadow="0">
      <root>
        <mxCell id="0" />
        <mxCell id="1" parent="0" />
        <mxCell id="B_Qh2BRSdst1haslCtpr-6" style="edgeStyle=orthogonalEdgeStyle;rounded=0;orthogonalLoop=1;jettySize=auto;html=1;exitX=0.5;exitY=1;exitDx=0;exitDy=0;entryX=0.5;entryY=0;entryDx=0;entryDy=0;" edge="1" parent="1" source="B_Qh2BRSdst1haslCtpr-1" target="B_Qh2BRSdst1haslCtpr-5">
          <mxGeometry relative="1" as="geometry" />
        </mxCell>
        <mxCell id="B_Qh2BRSdst1haslCtpr-1" value="填写用户信息（账号，密码）" style="rounded=1;whiteSpace=wrap;html=1;" vertex="1" parent="1">
          <mxGeometry x="155" y="270" width="100" height="90" as="geometry" />
        </mxCell>
        <mxCell id="B_Qh2BRSdst1haslCtpr-2" value="" style="ellipse;html=1;shape=endState;fillColor=#000000;strokeColor=default;" vertex="1" parent="1">
          <mxGeometry x="190" y="850" width="30" height="30" as="geometry" />
        </mxCell>
        <mxCell id="B_Qh2BRSdst1haslCtpr-3" value="" style="ellipse;html=1;shape=startState;fillColor=#000000;strokeColor=default;" vertex="1" parent="1">
          <mxGeometry x="190" y="170" width="30" height="30" as="geometry" />
        </mxCell>
        <mxCell id="B_Qh2BRSdst1haslCtpr-4" value="" style="edgeStyle=orthogonalEdgeStyle;html=1;verticalAlign=bottom;endArrow=open;endSize=8;strokeColor=default;rounded=0;" edge="1" source="B_Qh2BRSdst1haslCtpr-3" parent="1">
          <mxGeometry relative="1" as="geometry">
            <mxPoint x="205" y="270" as="targetPoint" />
          </mxGeometry>
        </mxCell>
        <mxCell id="B_Qh2BRSdst1haslCtpr-8" style="edgeStyle=orthogonalEdgeStyle;rounded=0;orthogonalLoop=1;jettySize=auto;html=1;exitX=0.5;exitY=1;exitDx=0;exitDy=0;entryX=0.5;entryY=0;entryDx=0;entryDy=0;" edge="1" parent="1" source="B_Qh2BRSdst1haslCtpr-5">
          <mxGeometry relative="1" as="geometry">
            <mxPoint x="205" y="524.9999999999999" as="targetPoint" />
          </mxGeometry>
        </mxCell>
        <mxCell id="B_Qh2BRSdst1haslCtpr-5" value="校验密码合理性" style="rounded=1;whiteSpace=wrap;html=1;" vertex="1" parent="1">
          <mxGeometry x="145" y="410" width="120" height="60" as="geometry" />
        </mxCell>
        <mxCell id="B_Qh2BRSdst1haslCtpr-11" style="edgeStyle=orthogonalEdgeStyle;rounded=0;orthogonalLoop=1;jettySize=auto;html=1;exitX=1;exitY=0.5;exitDx=0;exitDy=0;" edge="1" parent="1" source="B_Qh2BRSdst1haslCtpr-9" target="B_Qh2BRSdst1haslCtpr-10">
          <mxGeometry relative="1" as="geometry" />
        </mxCell>
        <mxCell id="B_Qh2BRSdst1haslCtpr-12" style="edgeStyle=orthogonalEdgeStyle;rounded=0;orthogonalLoop=1;jettySize=auto;html=1;exitX=0.5;exitY=1;exitDx=0;exitDy=0;" edge="1" parent="1" source="B_Qh2BRSdst1haslCtpr-9">
          <mxGeometry relative="1" as="geometry">
            <mxPoint x="205" y="690" as="targetPoint" />
          </mxGeometry>
        </mxCell>
        <mxCell id="B_Qh2BRSdst1haslCtpr-9" value="账号，密码是否为空" style="rhombus;whiteSpace=wrap;html=1;" vertex="1" parent="1">
          <mxGeometry x="157.5" y="530" width="95" height="90" as="geometry" />
        </mxCell>
        <mxCell id="B_Qh2BRSdst1haslCtpr-16" style="edgeStyle=orthogonalEdgeStyle;rounded=0;orthogonalLoop=1;jettySize=auto;html=1;exitX=1;exitY=0.5;exitDx=0;exitDy=0;entryX=0;entryY=0.5;entryDx=0;entryDy=0;" edge="1" parent="1" source="B_Qh2BRSdst1haslCtpr-10" target="B_Qh2BRSdst1haslCtpr-15">
          <mxGeometry relative="1" as="geometry" />
        </mxCell>
        <mxCell id="B_Qh2BRSdst1haslCtpr-10" value="提示账号密码为空" style="rounded=1;whiteSpace=wrap;html=1;" vertex="1" parent="1">
          <mxGeometry x="294" y="545" width="120" height="60" as="geometry" />
        </mxCell>
        <mxCell id="B_Qh2BRSdst1haslCtpr-14" style="edgeStyle=orthogonalEdgeStyle;rounded=0;orthogonalLoop=1;jettySize=auto;html=1;exitX=0.5;exitY=1;exitDx=0;exitDy=0;entryX=0.5;entryY=0;entryDx=0;entryDy=0;" edge="1" parent="1" source="B_Qh2BRSdst1haslCtpr-13" target="B_Qh2BRSdst1haslCtpr-2">
          <mxGeometry relative="1" as="geometry" />
        </mxCell>
        <mxCell id="B_Qh2BRSdst1haslCtpr-13" value="保存用户信息" style="rounded=1;whiteSpace=wrap;html=1;" vertex="1" parent="1">
          <mxGeometry x="145" y="690" width="120" height="60" as="geometry" />
        </mxCell>
        <mxCell id="B_Qh2BRSdst1haslCtpr-15" value="" style="ellipse;html=1;shape=endState;fillColor=#000000;strokeColor=default;" vertex="1" parent="1">
          <mxGeometry x="500" y="560" width="30" height="30" as="geometry" />
        </mxCell>
        <mxCell id="B_Qh2BRSdst1haslCtpr-21" style="edgeStyle=orthogonalEdgeStyle;rounded=0;orthogonalLoop=1;jettySize=auto;html=1;exitX=0.5;exitY=1;exitDx=0;exitDy=0;" edge="1" parent="1" source="B_Qh2BRSdst1haslCtpr-17" target="B_Qh2BRSdst1haslCtpr-20">
          <mxGeometry relative="1" as="geometry" />
        </mxCell>
        <mxCell id="B_Qh2BRSdst1haslCtpr-17" value="输入头像url，用户昵称，邮箱等信息" style="rounded=1;whiteSpace=wrap;html=1;" vertex="1" parent="1">
          <mxGeometry x="174" y="1040" width="120" height="60" as="geometry" />
        </mxCell>
        <mxCell id="B_Qh2BRSdst1haslCtpr-19" style="edgeStyle=orthogonalEdgeStyle;rounded=0;orthogonalLoop=1;jettySize=auto;html=1;exitX=0.5;exitY=1;exitDx=0;exitDy=0;entryX=0.5;entryY=0;entryDx=0;entryDy=0;" edge="1" parent="1" source="B_Qh2BRSdst1haslCtpr-18" target="B_Qh2BRSdst1haslCtpr-17">
          <mxGeometry relative="1" as="geometry" />
        </mxCell>
        <mxCell id="B_Qh2BRSdst1haslCtpr-18" value="" style="ellipse;html=1;shape=startState;fillColor=#000000;strokeColor=default;" vertex="1" parent="1">
          <mxGeometry x="219" y="950" width="30" height="30" as="geometry" />
        </mxCell>
        <mxCell id="B_Qh2BRSdst1haslCtpr-26" style="edgeStyle=orthogonalEdgeStyle;rounded=0;orthogonalLoop=1;jettySize=auto;html=1;exitX=0.5;exitY=1;exitDx=0;exitDy=0;" edge="1" parent="1" source="B_Qh2BRSdst1haslCtpr-20" target="B_Qh2BRSdst1haslCtpr-22">
          <mxGeometry relative="1" as="geometry" />
        </mxCell>
        <mxCell id="B_Qh2BRSdst1haslCtpr-20" value="校验数据合理性" style="rounded=1;whiteSpace=wrap;html=1;" vertex="1" parent="1">
          <mxGeometry x="174" y="1180" width="120" height="60" as="geometry" />
        </mxCell>
        <mxCell id="B_Qh2BRSdst1haslCtpr-27" style="edgeStyle=orthogonalEdgeStyle;rounded=0;orthogonalLoop=1;jettySize=auto;html=1;exitX=1;exitY=0.5;exitDx=0;exitDy=0;entryX=0;entryY=0.5;entryDx=0;entryDy=0;" edge="1" parent="1" source="B_Qh2BRSdst1haslCtpr-22" target="B_Qh2BRSdst1haslCtpr-23">
          <mxGeometry relative="1" as="geometry" />
        </mxCell>
        <mxCell id="B_Qh2BRSdst1haslCtpr-29" style="edgeStyle=orthogonalEdgeStyle;rounded=0;orthogonalLoop=1;jettySize=auto;html=1;exitX=0.5;exitY=1;exitDx=0;exitDy=0;" edge="1" parent="1" source="B_Qh2BRSdst1haslCtpr-22" target="B_Qh2BRSdst1haslCtpr-28">
          <mxGeometry relative="1" as="geometry" />
        </mxCell>
        <mxCell id="B_Qh2BRSdst1haslCtpr-22" value="数据合理" style="rhombus;whiteSpace=wrap;html=1;" vertex="1" parent="1">
          <mxGeometry x="194" y="1290" width="80" height="80" as="geometry" />
        </mxCell>
        <mxCell id="B_Qh2BRSdst1haslCtpr-32" style="edgeStyle=orthogonalEdgeStyle;rounded=0;orthogonalLoop=1;jettySize=auto;html=1;exitX=0.5;exitY=1;exitDx=0;exitDy=0;entryX=1;entryY=0.5;entryDx=0;entryDy=0;" edge="1" parent="1" source="B_Qh2BRSdst1haslCtpr-23" target="B_Qh2BRSdst1haslCtpr-30">
          <mxGeometry relative="1" as="geometry" />
        </mxCell>
        <mxCell id="B_Qh2BRSdst1haslCtpr-23" value="提示错误信息" style="rounded=1;whiteSpace=wrap;html=1;" vertex="1" parent="1">
          <mxGeometry x="340" y="1300" width="120" height="60" as="geometry" />
        </mxCell>
        <mxCell id="B_Qh2BRSdst1haslCtpr-24" value="是" style="text;html=1;align=center;verticalAlign=middle;whiteSpace=wrap;rounded=0;" vertex="1" parent="1">
          <mxGeometry x="234" y="540" width="60" height="30" as="geometry" />
        </mxCell>
        <mxCell id="B_Qh2BRSdst1haslCtpr-25" value="否" style="text;html=1;align=center;verticalAlign=middle;whiteSpace=wrap;rounded=0;" vertex="1" parent="1">
          <mxGeometry x="145" y="630" width="60" height="30" as="geometry" />
        </mxCell>
        <mxCell id="B_Qh2BRSdst1haslCtpr-31" style="edgeStyle=orthogonalEdgeStyle;rounded=0;orthogonalLoop=1;jettySize=auto;html=1;exitX=0.5;exitY=1;exitDx=0;exitDy=0;entryX=0.5;entryY=0;entryDx=0;entryDy=0;" edge="1" parent="1" source="B_Qh2BRSdst1haslCtpr-28" target="B_Qh2BRSdst1haslCtpr-30">
          <mxGeometry relative="1" as="geometry" />
        </mxCell>
        <mxCell id="B_Qh2BRSdst1haslCtpr-28" value="修改用户信息" style="rounded=1;whiteSpace=wrap;html=1;" vertex="1" parent="1">
          <mxGeometry x="174" y="1460" width="120" height="60" as="geometry" />
        </mxCell>
        <mxCell id="B_Qh2BRSdst1haslCtpr-30" value="" style="ellipse;html=1;shape=endState;fillColor=#000000;strokeColor=default;" vertex="1" parent="1">
          <mxGeometry x="219" y="1610" width="30" height="30" as="geometry" />
        </mxCell>
        <mxCell id="B_Qh2BRSdst1haslCtpr-33" style="edgeStyle=orthogonalEdgeStyle;rounded=0;orthogonalLoop=1;jettySize=auto;html=1;exitX=0.5;exitY=1;exitDx=0;exitDy=0;" edge="1" parent="1" source="B_Qh2BRSdst1haslCtpr-34" target="B_Qh2BRSdst1haslCtpr-38">
          <mxGeometry relative="1" as="geometry" />
        </mxCell>
        <mxCell id="B_Qh2BRSdst1haslCtpr-34" value="输入学校，专业，姓名" style="rounded=1;whiteSpace=wrap;html=1;" vertex="1" parent="1">
          <mxGeometry x="174" y="1990" width="120" height="60" as="geometry" />
        </mxCell>
        <mxCell id="B_Qh2BRSdst1haslCtpr-35" style="edgeStyle=orthogonalEdgeStyle;rounded=0;orthogonalLoop=1;jettySize=auto;html=1;exitX=0.5;exitY=1;exitDx=0;exitDy=0;entryX=0.5;entryY=0;entryDx=0;entryDy=0;" edge="1" parent="1" source="B_Qh2BRSdst1haslCtpr-36" target="B_Qh2BRSdst1haslCtpr-34">
          <mxGeometry relative="1" as="geometry" />
        </mxCell>
        <mxCell id="B_Qh2BRSdst1haslCtpr-36" value="" style="ellipse;html=1;shape=startState;fillColor=#000000;strokeColor=default;" vertex="1" parent="1">
          <mxGeometry x="219" y="1900" width="30" height="30" as="geometry" />
        </mxCell>
        <mxCell id="B_Qh2BRSdst1haslCtpr-37" style="edgeStyle=orthogonalEdgeStyle;rounded=0;orthogonalLoop=1;jettySize=auto;html=1;exitX=0.5;exitY=1;exitDx=0;exitDy=0;" edge="1" parent="1" source="B_Qh2BRSdst1haslCtpr-38" target="B_Qh2BRSdst1haslCtpr-41">
          <mxGeometry relative="1" as="geometry" />
        </mxCell>
        <mxCell id="B_Qh2BRSdst1haslCtpr-38" value="校验大学生资质" style="rounded=1;whiteSpace=wrap;html=1;" vertex="1" parent="1">
          <mxGeometry x="174" y="2130" width="120" height="60" as="geometry" />
        </mxCell>
        <mxCell id="B_Qh2BRSdst1haslCtpr-39" style="edgeStyle=orthogonalEdgeStyle;rounded=0;orthogonalLoop=1;jettySize=auto;html=1;exitX=1;exitY=0.5;exitDx=0;exitDy=0;entryX=0;entryY=0.5;entryDx=0;entryDy=0;" edge="1" parent="1" source="B_Qh2BRSdst1haslCtpr-41" target="B_Qh2BRSdst1haslCtpr-43">
          <mxGeometry relative="1" as="geometry" />
        </mxCell>
        <mxCell id="B_Qh2BRSdst1haslCtpr-40" style="edgeStyle=orthogonalEdgeStyle;rounded=0;orthogonalLoop=1;jettySize=auto;html=1;exitX=0.5;exitY=1;exitDx=0;exitDy=0;" edge="1" parent="1" source="B_Qh2BRSdst1haslCtpr-41" target="B_Qh2BRSdst1haslCtpr-45">
          <mxGeometry relative="1" as="geometry" />
        </mxCell>
        <mxCell id="B_Qh2BRSdst1haslCtpr-41" value="校验成功" style="rhombus;whiteSpace=wrap;html=1;" vertex="1" parent="1">
          <mxGeometry x="194" y="2240" width="80" height="80" as="geometry" />
        </mxCell>
        <mxCell id="B_Qh2BRSdst1haslCtpr-42" style="edgeStyle=orthogonalEdgeStyle;rounded=0;orthogonalLoop=1;jettySize=auto;html=1;exitX=0.5;exitY=1;exitDx=0;exitDy=0;entryX=1;entryY=0.5;entryDx=0;entryDy=0;" edge="1" parent="1" source="B_Qh2BRSdst1haslCtpr-43" target="B_Qh2BRSdst1haslCtpr-46">
          <mxGeometry relative="1" as="geometry" />
        </mxCell>
        <mxCell id="B_Qh2BRSdst1haslCtpr-43" value="提示错误信息" style="rounded=1;whiteSpace=wrap;html=1;" vertex="1" parent="1">
          <mxGeometry x="340" y="2250" width="120" height="60" as="geometry" />
        </mxCell>
        <mxCell id="B_Qh2BRSdst1haslCtpr-44" style="edgeStyle=orthogonalEdgeStyle;rounded=0;orthogonalLoop=1;jettySize=auto;html=1;exitX=0.5;exitY=1;exitDx=0;exitDy=0;entryX=0.5;entryY=0;entryDx=0;entryDy=0;" edge="1" parent="1" source="B_Qh2BRSdst1haslCtpr-45" target="B_Qh2BRSdst1haslCtpr-46">
          <mxGeometry relative="1" as="geometry" />
        </mxCell>
        <mxCell id="B_Qh2BRSdst1haslCtpr-45" value="修改用户信息" style="rounded=1;whiteSpace=wrap;html=1;" vertex="1" parent="1">
          <mxGeometry x="174" y="2410" width="120" height="60" as="geometry" />
        </mxCell>
        <mxCell id="B_Qh2BRSdst1haslCtpr-46" value="" style="ellipse;html=1;shape=endState;fillColor=#000000;strokeColor=default;" vertex="1" parent="1">
          <mxGeometry x="219" y="2560" width="30" height="30" as="geometry" />
        </mxCell>
        <mxCell id="B_Qh2BRSdst1haslCtpr-47" value="否" style="text;html=1;align=center;verticalAlign=middle;whiteSpace=wrap;rounded=0;" vertex="1" parent="1">
          <mxGeometry x="274" y="1300" width="60" height="30" as="geometry" />
        </mxCell>
        <mxCell id="B_Qh2BRSdst1haslCtpr-48" value="是" style="text;html=1;align=center;verticalAlign=middle;whiteSpace=wrap;rounded=0;" vertex="1" parent="1">
          <mxGeometry x="170" y="1400" width="60" height="30" as="geometry" />
        </mxCell>
        <mxCell id="B_Qh2BRSdst1haslCtpr-49" value="否" style="text;html=1;align=center;verticalAlign=middle;whiteSpace=wrap;rounded=0;" vertex="1" parent="1">
          <mxGeometry x="274" y="2250" width="60" height="30" as="geometry" />
        </mxCell>
        <mxCell id="B_Qh2BRSdst1haslCtpr-50" value="否" style="text;html=1;align=center;verticalAlign=middle;whiteSpace=wrap;rounded=0;" vertex="1" parent="1">
          <mxGeometry x="174" y="2340" width="60" height="30" as="geometry" />
        </mxCell>
        <mxCell id="B_Qh2BRSdst1haslCtpr-67" style="edgeStyle=orthogonalEdgeStyle;rounded=0;orthogonalLoop=1;jettySize=auto;html=1;exitX=0.5;exitY=1;exitDx=0;exitDy=0;" edge="1" parent="1" source="B_Qh2BRSdst1haslCtpr-68" target="B_Qh2BRSdst1haslCtpr-72">
          <mxGeometry relative="1" as="geometry" />
        </mxCell>
        <mxCell id="B_Qh2BRSdst1haslCtpr-68" value="获取消息列表" style="rounded=1;whiteSpace=wrap;html=1;" vertex="1" parent="1">
          <mxGeometry x="249" y="3020" width="120" height="60" as="geometry" />
        </mxCell>
        <mxCell id="B_Qh2BRSdst1haslCtpr-69" style="edgeStyle=orthogonalEdgeStyle;rounded=0;orthogonalLoop=1;jettySize=auto;html=1;exitX=0.5;exitY=1;exitDx=0;exitDy=0;entryX=0.5;entryY=0;entryDx=0;entryDy=0;" edge="1" parent="1" source="B_Qh2BRSdst1haslCtpr-70" target="B_Qh2BRSdst1haslCtpr-68">
          <mxGeometry relative="1" as="geometry" />
        </mxCell>
        <mxCell id="B_Qh2BRSdst1haslCtpr-70" value="" style="ellipse;html=1;shape=startState;fillColor=#000000;strokeColor=default;" vertex="1" parent="1">
          <mxGeometry x="294" y="2930" width="30" height="30" as="geometry" />
        </mxCell>
        <mxCell id="B_Qh2BRSdst1haslCtpr-84" style="edgeStyle=orthogonalEdgeStyle;rounded=0;orthogonalLoop=1;jettySize=auto;html=1;exitX=0.5;exitY=1;exitDx=0;exitDy=0;entryX=0.5;entryY=0;entryDx=0;entryDy=0;" edge="1" parent="1" source="B_Qh2BRSdst1haslCtpr-72" target="B_Qh2BRSdst1haslCtpr-83">
          <mxGeometry relative="1" as="geometry" />
        </mxCell>
        <mxCell id="B_Qh2BRSdst1haslCtpr-72" value="获取消息内容" style="rounded=1;whiteSpace=wrap;html=1;" vertex="1" parent="1">
          <mxGeometry x="249" y="3160" width="120" height="60" as="geometry" />
        </mxCell>
        <mxCell id="B_Qh2BRSdst1haslCtpr-78" style="edgeStyle=orthogonalEdgeStyle;rounded=0;orthogonalLoop=1;jettySize=auto;html=1;exitX=0.5;exitY=1;exitDx=0;exitDy=0;entryX=0.5;entryY=0;entryDx=0;entryDy=0;" edge="1" parent="1" source="B_Qh2BRSdst1haslCtpr-79" target="B_Qh2BRSdst1haslCtpr-80">
          <mxGeometry relative="1" as="geometry" />
        </mxCell>
        <mxCell id="B_Qh2BRSdst1haslCtpr-79" value="保存用户信息到数据库" style="rounded=1;whiteSpace=wrap;html=1;" vertex="1" parent="1">
          <mxGeometry x="249" y="3420" width="120" height="60" as="geometry" />
        </mxCell>
        <mxCell id="B_Qh2BRSdst1haslCtpr-80" value="" style="ellipse;html=1;shape=endState;fillColor=#000000;strokeColor=default;" vertex="1" parent="1">
          <mxGeometry x="294" y="3570" width="30" height="30" as="geometry" />
        </mxCell>
        <mxCell id="B_Qh2BRSdst1haslCtpr-85" style="edgeStyle=orthogonalEdgeStyle;rounded=0;orthogonalLoop=1;jettySize=auto;html=1;exitX=0.5;exitY=1;exitDx=0;exitDy=0;entryX=0.5;entryY=0;entryDx=0;entryDy=0;" edge="1" parent="1" source="B_Qh2BRSdst1haslCtpr-83" target="B_Qh2BRSdst1haslCtpr-79">
          <mxGeometry relative="1" as="geometry" />
        </mxCell>
        <mxCell id="B_Qh2BRSdst1haslCtpr-83" value="填写用户消息" style="rounded=1;whiteSpace=wrap;html=1;" vertex="1" parent="1">
          <mxGeometry x="249" y="3290" width="120" height="60" as="geometry" />
        </mxCell>
        <mxCell id="B_Qh2BRSdst1haslCtpr-87" style="edgeStyle=orthogonalEdgeStyle;rounded=0;orthogonalLoop=1;jettySize=auto;html=1;exitX=0.5;exitY=1;exitDx=0;exitDy=0;entryX=0.5;entryY=0;entryDx=0;entryDy=0;" edge="1" parent="1" source="B_Qh2BRSdst1haslCtpr-88" target="B_Qh2BRSdst1haslCtpr-98">
          <mxGeometry relative="1" as="geometry">
            <mxPoint x="315" y="4010" as="targetPoint" />
          </mxGeometry>
        </mxCell>
        <mxCell id="B_Qh2BRSdst1haslCtpr-88" value="输入用户名称关键字" style="rounded=1;whiteSpace=wrap;html=1;" vertex="1" parent="1">
          <mxGeometry x="255" y="3870" width="120" height="60" as="geometry" />
        </mxCell>
        <mxCell id="B_Qh2BRSdst1haslCtpr-89" style="edgeStyle=orthogonalEdgeStyle;rounded=0;orthogonalLoop=1;jettySize=auto;html=1;exitX=0.5;exitY=1;exitDx=0;exitDy=0;entryX=0.5;entryY=0;entryDx=0;entryDy=0;" edge="1" parent="1" source="B_Qh2BRSdst1haslCtpr-90" target="B_Qh2BRSdst1haslCtpr-88">
          <mxGeometry relative="1" as="geometry" />
        </mxCell>
        <mxCell id="B_Qh2BRSdst1haslCtpr-90" value="" style="ellipse;html=1;shape=startState;fillColor=#000000;strokeColor=default;" vertex="1" parent="1">
          <mxGeometry x="300" y="3780" width="30" height="30" as="geometry" />
        </mxCell>
        <mxCell id="B_Qh2BRSdst1haslCtpr-91" style="edgeStyle=orthogonalEdgeStyle;rounded=0;orthogonalLoop=1;jettySize=auto;html=1;exitX=0.5;exitY=1;exitDx=0;exitDy=0;entryX=0.5;entryY=0;entryDx=0;entryDy=0;" edge="1" parent="1" target="B_Qh2BRSdst1haslCtpr-97">
          <mxGeometry relative="1" as="geometry">
            <mxPoint x="315" y="4070" as="sourcePoint" />
          </mxGeometry>
        </mxCell>
        <mxCell id="B_Qh2BRSdst1haslCtpr-93" style="edgeStyle=orthogonalEdgeStyle;rounded=0;orthogonalLoop=1;jettySize=auto;html=1;exitX=0.5;exitY=1;exitDx=0;exitDy=0;entryX=0.5;entryY=0;entryDx=0;entryDy=0;" edge="1" parent="1" target="B_Qh2BRSdst1haslCtpr-95">
          <mxGeometry relative="1" as="geometry">
            <mxPoint x="315" y="4330" as="sourcePoint" />
          </mxGeometry>
        </mxCell>
        <mxCell id="B_Qh2BRSdst1haslCtpr-95" value="" style="ellipse;html=1;shape=endState;fillColor=#000000;strokeColor=default;" vertex="1" parent="1">
          <mxGeometry x="300" y="4420" width="30" height="30" as="geometry" />
        </mxCell>
        <mxCell id="B_Qh2BRSdst1haslCtpr-96" style="edgeStyle=orthogonalEdgeStyle;rounded=0;orthogonalLoop=1;jettySize=auto;html=1;exitX=0.5;exitY=1;exitDx=0;exitDy=0;entryX=0.5;entryY=0;entryDx=0;entryDy=0;" edge="1" parent="1" source="B_Qh2BRSdst1haslCtpr-97" target="B_Qh2BRSdst1haslCtpr-99">
          <mxGeometry relative="1" as="geometry">
            <mxPoint x="315" y="4270" as="targetPoint" />
          </mxGeometry>
        </mxCell>
        <mxCell id="B_Qh2BRSdst1haslCtpr-97" value="展示符合条件的用户" style="rounded=1;whiteSpace=wrap;html=1;" vertex="1" parent="1">
          <mxGeometry x="255" y="4140" width="120" height="60" as="geometry" />
        </mxCell>
        <mxCell id="B_Qh2BRSdst1haslCtpr-102" style="edgeStyle=orthogonalEdgeStyle;rounded=0;orthogonalLoop=1;jettySize=auto;html=1;exitX=0;exitY=0.5;exitDx=0;exitDy=0;entryX=1;entryY=0.5;entryDx=0;entryDy=0;" edge="1" parent="1" source="B_Qh2BRSdst1haslCtpr-98" target="B_Qh2BRSdst1haslCtpr-101">
          <mxGeometry relative="1" as="geometry" />
        </mxCell>
        <mxCell id="B_Qh2BRSdst1haslCtpr-98" value="是否存在用户" style="rhombus;whiteSpace=wrap;html=1;" vertex="1" parent="1">
          <mxGeometry x="275" y="4000" width="80" height="80" as="geometry" />
        </mxCell>
        <mxCell id="B_Qh2BRSdst1haslCtpr-100" style="edgeStyle=orthogonalEdgeStyle;rounded=0;orthogonalLoop=1;jettySize=auto;html=1;exitX=1;exitY=0.5;exitDx=0;exitDy=0;entryX=1;entryY=0.5;entryDx=0;entryDy=0;" edge="1" parent="1" source="B_Qh2BRSdst1haslCtpr-99" target="B_Qh2BRSdst1haslCtpr-88">
          <mxGeometry relative="1" as="geometry">
            <Array as="points">
              <mxPoint x="570" y="4290" />
              <mxPoint x="570" y="3900" />
            </Array>
          </mxGeometry>
        </mxCell>
        <mxCell id="B_Qh2BRSdst1haslCtpr-99" value="是否继续操作" style="rhombus;whiteSpace=wrap;html=1;" vertex="1" parent="1">
          <mxGeometry x="275" y="4250" width="80" height="80" as="geometry" />
        </mxCell>
        <mxCell id="B_Qh2BRSdst1haslCtpr-103" style="edgeStyle=orthogonalEdgeStyle;rounded=0;orthogonalLoop=1;jettySize=auto;html=1;exitX=0.5;exitY=1;exitDx=0;exitDy=0;entryX=0;entryY=0.5;entryDx=0;entryDy=0;" edge="1" parent="1" source="B_Qh2BRSdst1haslCtpr-101" target="B_Qh2BRSdst1haslCtpr-99">
          <mxGeometry relative="1" as="geometry" />
        </mxCell>
        <mxCell id="B_Qh2BRSdst1haslCtpr-101" value="展示空页面" style="rounded=1;whiteSpace=wrap;html=1;" vertex="1" parent="1">
          <mxGeometry x="74" y="4010" width="120" height="60" as="geometry" />
        </mxCell>
        <mxCell id="B_Qh2BRSdst1haslCtpr-104" value="否" style="text;html=1;align=center;verticalAlign=middle;whiteSpace=wrap;rounded=0;" vertex="1" parent="1">
          <mxGeometry x="220" y="4010" width="60" height="30" as="geometry" />
        </mxCell>
        <mxCell id="B_Qh2BRSdst1haslCtpr-105" value="是" style="text;html=1;align=center;verticalAlign=middle;whiteSpace=wrap;rounded=0;" vertex="1" parent="1">
          <mxGeometry x="324" y="4092" width="60" height="30" as="geometry" />
        </mxCell>
        <mxCell id="B_Qh2BRSdst1haslCtpr-106" value="是" style="text;html=1;align=center;verticalAlign=middle;whiteSpace=wrap;rounded=0;" vertex="1" parent="1">
          <mxGeometry x="355" y="4290" width="60" height="30" as="geometry" />
        </mxCell>
        <mxCell id="B_Qh2BRSdst1haslCtpr-107" value="否" style="text;html=1;align=center;verticalAlign=middle;whiteSpace=wrap;rounded=0;" vertex="1" parent="1">
          <mxGeometry x="240" y="4350" width="60" height="30" as="geometry" />
        </mxCell>
        <mxCell id="B_Qh2BRSdst1haslCtpr-109" style="edgeStyle=orthogonalEdgeStyle;rounded=0;orthogonalLoop=1;jettySize=auto;html=1;exitX=0.5;exitY=1;exitDx=0;exitDy=0;" edge="1" parent="1" source="B_Qh2BRSdst1haslCtpr-110" target="B_Qh2BRSdst1haslCtpr-114">
          <mxGeometry relative="1" as="geometry" />
        </mxCell>
        <mxCell id="B_Qh2BRSdst1haslCtpr-110" value="用户违反平台有关规定" style="rounded=1;whiteSpace=wrap;html=1;" vertex="1" parent="1">
          <mxGeometry x="280" y="5110" width="120" height="60" as="geometry" />
        </mxCell>
        <mxCell id="B_Qh2BRSdst1haslCtpr-111" style="edgeStyle=orthogonalEdgeStyle;rounded=0;orthogonalLoop=1;jettySize=auto;html=1;exitX=0.5;exitY=1;exitDx=0;exitDy=0;entryX=0.5;entryY=0;entryDx=0;entryDy=0;" edge="1" parent="1" source="B_Qh2BRSdst1haslCtpr-112" target="B_Qh2BRSdst1haslCtpr-110">
          <mxGeometry relative="1" as="geometry" />
        </mxCell>
        <mxCell id="B_Qh2BRSdst1haslCtpr-112" value="" style="ellipse;html=1;shape=startState;fillColor=#000000;strokeColor=default;" vertex="1" parent="1">
          <mxGeometry x="325" y="5020" width="30" height="30" as="geometry" />
        </mxCell>
        <mxCell id="B_Qh2BRSdst1haslCtpr-113" style="edgeStyle=orthogonalEdgeStyle;rounded=0;orthogonalLoop=1;jettySize=auto;html=1;exitX=0.5;exitY=1;exitDx=0;exitDy=0;entryX=0.5;entryY=0;entryDx=0;entryDy=0;" edge="1" parent="1" source="B_Qh2BRSdst1haslCtpr-114" target="B_Qh2BRSdst1haslCtpr-119">
          <mxGeometry relative="1" as="geometry" />
        </mxCell>
        <mxCell id="B_Qh2BRSdst1haslCtpr-114" value="搜索违规用户" style="rounded=1;whiteSpace=wrap;html=1;" vertex="1" parent="1">
          <mxGeometry x="280" y="5250" width="120" height="60" as="geometry" />
        </mxCell>
        <mxCell id="B_Qh2BRSdst1haslCtpr-115" style="edgeStyle=orthogonalEdgeStyle;rounded=0;orthogonalLoop=1;jettySize=auto;html=1;exitX=0.5;exitY=1;exitDx=0;exitDy=0;entryX=0.5;entryY=0;entryDx=0;entryDy=0;" edge="1" parent="1" source="B_Qh2BRSdst1haslCtpr-116" target="B_Qh2BRSdst1haslCtpr-117">
          <mxGeometry relative="1" as="geometry" />
        </mxCell>
        <mxCell id="B_Qh2BRSdst1haslCtpr-116" value="将用户强制下线" style="rounded=1;whiteSpace=wrap;html=1;" vertex="1" parent="1">
          <mxGeometry x="280" y="5530" width="120" height="60" as="geometry" />
        </mxCell>
        <mxCell id="B_Qh2BRSdst1haslCtpr-117" value="" style="ellipse;html=1;shape=endState;fillColor=#000000;strokeColor=default;" vertex="1" parent="1">
          <mxGeometry x="325" y="5680" width="30" height="30" as="geometry" />
        </mxCell>
        <mxCell id="B_Qh2BRSdst1haslCtpr-118" style="edgeStyle=orthogonalEdgeStyle;rounded=0;orthogonalLoop=1;jettySize=auto;html=1;exitX=0.5;exitY=1;exitDx=0;exitDy=0;entryX=0.5;entryY=0;entryDx=0;entryDy=0;" edge="1" parent="1" source="B_Qh2BRSdst1haslCtpr-119" target="B_Qh2BRSdst1haslCtpr-116">
          <mxGeometry relative="1" as="geometry" />
        </mxCell>
        <mxCell id="B_Qh2BRSdst1haslCtpr-119" value="对用户进行封禁" style="rounded=1;whiteSpace=wrap;html=1;" vertex="1" parent="1">
          <mxGeometry x="280" y="5380" width="120" height="60" as="geometry" />
        </mxCell>
        <mxCell id="B_Qh2BRSdst1haslCtpr-120" style="edgeStyle=orthogonalEdgeStyle;rounded=0;orthogonalLoop=1;jettySize=auto;html=1;exitX=0.5;exitY=1;exitDx=0;exitDy=0;entryX=0.5;entryY=0;entryDx=0;entryDy=0;" edge="1" parent="1" source="B_Qh2BRSdst1haslCtpr-121" target="B_Qh2BRSdst1haslCtpr-130">
          <mxGeometry relative="1" as="geometry">
            <mxPoint x="931" y="4000" as="targetPoint" />
          </mxGeometry>
        </mxCell>
        <mxCell id="B_Qh2BRSdst1haslCtpr-121" value="输入资源名称关键字" style="rounded=1;whiteSpace=wrap;html=1;" vertex="1" parent="1">
          <mxGeometry x="871" y="3860" width="120" height="60" as="geometry" />
        </mxCell>
        <mxCell id="B_Qh2BRSdst1haslCtpr-122" style="edgeStyle=orthogonalEdgeStyle;rounded=0;orthogonalLoop=1;jettySize=auto;html=1;exitX=0.5;exitY=1;exitDx=0;exitDy=0;entryX=0.5;entryY=0;entryDx=0;entryDy=0;" edge="1" parent="1" source="B_Qh2BRSdst1haslCtpr-123" target="B_Qh2BRSdst1haslCtpr-121">
          <mxGeometry relative="1" as="geometry" />
        </mxCell>
        <mxCell id="B_Qh2BRSdst1haslCtpr-123" value="" style="ellipse;html=1;shape=startState;fillColor=#000000;strokeColor=default;" vertex="1" parent="1">
          <mxGeometry x="916" y="3770" width="30" height="30" as="geometry" />
        </mxCell>
        <mxCell id="B_Qh2BRSdst1haslCtpr-124" style="edgeStyle=orthogonalEdgeStyle;rounded=0;orthogonalLoop=1;jettySize=auto;html=1;exitX=0.5;exitY=1;exitDx=0;exitDy=0;entryX=0.5;entryY=0;entryDx=0;entryDy=0;" edge="1" parent="1" target="B_Qh2BRSdst1haslCtpr-128" source="B_Qh2BRSdst1haslCtpr-130">
          <mxGeometry relative="1" as="geometry">
            <mxPoint x="931" y="4060" as="sourcePoint" />
          </mxGeometry>
        </mxCell>
        <mxCell id="B_Qh2BRSdst1haslCtpr-125" style="edgeStyle=orthogonalEdgeStyle;rounded=0;orthogonalLoop=1;jettySize=auto;html=1;exitX=0.5;exitY=1;exitDx=0;exitDy=0;entryX=0.5;entryY=0;entryDx=0;entryDy=0;" edge="1" parent="1" target="B_Qh2BRSdst1haslCtpr-126">
          <mxGeometry relative="1" as="geometry">
            <mxPoint x="931" y="4320" as="sourcePoint" />
          </mxGeometry>
        </mxCell>
        <mxCell id="B_Qh2BRSdst1haslCtpr-126" value="" style="ellipse;html=1;shape=endState;fillColor=#000000;strokeColor=default;" vertex="1" parent="1">
          <mxGeometry x="916" y="4410" width="30" height="30" as="geometry" />
        </mxCell>
        <mxCell id="B_Qh2BRSdst1haslCtpr-127" style="edgeStyle=orthogonalEdgeStyle;rounded=0;orthogonalLoop=1;jettySize=auto;html=1;exitX=0.5;exitY=1;exitDx=0;exitDy=0;entryX=0.5;entryY=0;entryDx=0;entryDy=0;" edge="1" parent="1" source="B_Qh2BRSdst1haslCtpr-128" target="B_Qh2BRSdst1haslCtpr-132">
          <mxGeometry relative="1" as="geometry">
            <mxPoint x="931" y="4260" as="targetPoint" />
          </mxGeometry>
        </mxCell>
        <mxCell id="B_Qh2BRSdst1haslCtpr-128" value="展示符合的资源" style="rounded=1;whiteSpace=wrap;html=1;" vertex="1" parent="1">
          <mxGeometry x="871" y="4130" width="120" height="60" as="geometry" />
        </mxCell>
        <mxCell id="B_Qh2BRSdst1haslCtpr-129" style="edgeStyle=orthogonalEdgeStyle;rounded=0;orthogonalLoop=1;jettySize=auto;html=1;exitX=0;exitY=0.5;exitDx=0;exitDy=0;entryX=1;entryY=0.5;entryDx=0;entryDy=0;" edge="1" parent="1" source="B_Qh2BRSdst1haslCtpr-130" target="B_Qh2BRSdst1haslCtpr-134">
          <mxGeometry relative="1" as="geometry" />
        </mxCell>
        <mxCell id="B_Qh2BRSdst1haslCtpr-130" value="是否存在符合已发布资源" style="rhombus;whiteSpace=wrap;html=1;" vertex="1" parent="1">
          <mxGeometry x="854.25" y="3990" width="153.5" height="65" as="geometry" />
        </mxCell>
        <mxCell id="B_Qh2BRSdst1haslCtpr-131" style="edgeStyle=orthogonalEdgeStyle;rounded=0;orthogonalLoop=1;jettySize=auto;html=1;exitX=1;exitY=0.5;exitDx=0;exitDy=0;entryX=1;entryY=0.5;entryDx=0;entryDy=0;" edge="1" parent="1" source="B_Qh2BRSdst1haslCtpr-132" target="B_Qh2BRSdst1haslCtpr-121">
          <mxGeometry relative="1" as="geometry">
            <Array as="points">
              <mxPoint x="1186" y="4280" />
              <mxPoint x="1186" y="3890" />
            </Array>
          </mxGeometry>
        </mxCell>
        <mxCell id="B_Qh2BRSdst1haslCtpr-132" value="是否继续操作" style="rhombus;whiteSpace=wrap;html=1;" vertex="1" parent="1">
          <mxGeometry x="891" y="4240" width="80" height="80" as="geometry" />
        </mxCell>
        <mxCell id="B_Qh2BRSdst1haslCtpr-133" style="edgeStyle=orthogonalEdgeStyle;rounded=0;orthogonalLoop=1;jettySize=auto;html=1;exitX=0.5;exitY=1;exitDx=0;exitDy=0;entryX=0;entryY=0.5;entryDx=0;entryDy=0;" edge="1" parent="1" source="B_Qh2BRSdst1haslCtpr-134" target="B_Qh2BRSdst1haslCtpr-132">
          <mxGeometry relative="1" as="geometry" />
        </mxCell>
        <mxCell id="B_Qh2BRSdst1haslCtpr-134" value="展示空页面" style="rounded=1;whiteSpace=wrap;html=1;" vertex="1" parent="1">
          <mxGeometry x="670" y="3995" width="120" height="60" as="geometry" />
        </mxCell>
        <mxCell id="B_Qh2BRSdst1haslCtpr-135" value="否" style="text;html=1;align=center;verticalAlign=middle;whiteSpace=wrap;rounded=0;" vertex="1" parent="1">
          <mxGeometry x="806.5" y="4000" width="60" height="30" as="geometry" />
        </mxCell>
        <mxCell id="B_Qh2BRSdst1haslCtpr-136" value="是" style="text;html=1;align=center;verticalAlign=middle;whiteSpace=wrap;rounded=0;" vertex="1" parent="1">
          <mxGeometry x="926" y="4077" width="60" height="30" as="geometry" />
        </mxCell>
        <mxCell id="B_Qh2BRSdst1haslCtpr-137" value="是" style="text;html=1;align=center;verticalAlign=middle;whiteSpace=wrap;rounded=0;" vertex="1" parent="1">
          <mxGeometry x="980" y="4280" width="60" height="30" as="geometry" />
        </mxCell>
        <mxCell id="B_Qh2BRSdst1haslCtpr-138" value="否" style="text;html=1;align=center;verticalAlign=middle;whiteSpace=wrap;rounded=0;" vertex="1" parent="1">
          <mxGeometry x="856" y="4330" width="60" height="30" as="geometry" />
        </mxCell>
        <mxCell id="B_Qh2BRSdst1haslCtpr-139" style="edgeStyle=orthogonalEdgeStyle;rounded=0;orthogonalLoop=1;jettySize=auto;html=1;exitX=0.5;exitY=1;exitDx=0;exitDy=0;" edge="1" parent="1" source="B_Qh2BRSdst1haslCtpr-140" target="B_Qh2BRSdst1haslCtpr-144">
          <mxGeometry relative="1" as="geometry" />
        </mxCell>
        <mxCell id="B_Qh2BRSdst1haslCtpr-140" value="资源违反平台有关规定" style="rounded=1;whiteSpace=wrap;html=1;" vertex="1" parent="1">
          <mxGeometry x="896" y="5100" width="120" height="60" as="geometry" />
        </mxCell>
        <mxCell id="B_Qh2BRSdst1haslCtpr-141" style="edgeStyle=orthogonalEdgeStyle;rounded=0;orthogonalLoop=1;jettySize=auto;html=1;exitX=0.5;exitY=1;exitDx=0;exitDy=0;entryX=0.5;entryY=0;entryDx=0;entryDy=0;" edge="1" parent="1" source="B_Qh2BRSdst1haslCtpr-142" target="B_Qh2BRSdst1haslCtpr-140">
          <mxGeometry relative="1" as="geometry" />
        </mxCell>
        <mxCell id="B_Qh2BRSdst1haslCtpr-142" value="" style="ellipse;html=1;shape=startState;fillColor=#000000;strokeColor=default;" vertex="1" parent="1">
          <mxGeometry x="941" y="5010" width="30" height="30" as="geometry" />
        </mxCell>
        <mxCell id="B_Qh2BRSdst1haslCtpr-143" style="edgeStyle=orthogonalEdgeStyle;rounded=0;orthogonalLoop=1;jettySize=auto;html=1;exitX=0.5;exitY=1;exitDx=0;exitDy=0;entryX=0.5;entryY=0;entryDx=0;entryDy=0;" edge="1" parent="1" source="B_Qh2BRSdst1haslCtpr-144" target="B_Qh2BRSdst1haslCtpr-149">
          <mxGeometry relative="1" as="geometry" />
        </mxCell>
        <mxCell id="B_Qh2BRSdst1haslCtpr-144" value="搜索违规资源" style="rounded=1;whiteSpace=wrap;html=1;" vertex="1" parent="1">
          <mxGeometry x="896" y="5220" width="120" height="60" as="geometry" />
        </mxCell>
        <mxCell id="B_Qh2BRSdst1haslCtpr-147" value="" style="ellipse;html=1;shape=endState;fillColor=#000000;strokeColor=default;" vertex="1" parent="1">
          <mxGeometry x="941" y="5520" width="30" height="30" as="geometry" />
        </mxCell>
        <mxCell id="B_Qh2BRSdst1haslCtpr-148" style="edgeStyle=orthogonalEdgeStyle;rounded=0;orthogonalLoop=1;jettySize=auto;html=1;exitX=0.5;exitY=1;exitDx=0;exitDy=0;entryX=0.5;entryY=0;entryDx=0;entryDy=0;" edge="1" parent="1" source="B_Qh2BRSdst1haslCtpr-149" target="B_Qh2BRSdst1haslCtpr-147">
          <mxGeometry relative="1" as="geometry">
            <mxPoint x="956" y="5520" as="targetPoint" />
          </mxGeometry>
        </mxCell>
        <mxCell id="B_Qh2BRSdst1haslCtpr-149" value="强制下架资源" style="rounded=1;whiteSpace=wrap;html=1;" vertex="1" parent="1">
          <mxGeometry x="896" y="5370" width="120" height="60" as="geometry" />
        </mxCell>
        <mxCell id="B_Qh2BRSdst1haslCtpr-163" style="edgeStyle=orthogonalEdgeStyle;rounded=0;orthogonalLoop=1;jettySize=auto;html=1;exitX=0.5;exitY=1;exitDx=0;exitDy=0;entryX=0.5;entryY=0;entryDx=0;entryDy=0;" edge="1" parent="1" source="B_Qh2BRSdst1haslCtpr-151" target="B_Qh2BRSdst1haslCtpr-162">
          <mxGeometry relative="1" as="geometry" />
        </mxCell>
        <mxCell id="B_Qh2BRSdst1haslCtpr-151" value="挑选心仪资源" style="rounded=1;whiteSpace=wrap;html=1;" vertex="1" parent="1">
          <mxGeometry x="244" y="6190" width="120" height="60" as="geometry" />
        </mxCell>
        <mxCell id="B_Qh2BRSdst1haslCtpr-152" style="edgeStyle=orthogonalEdgeStyle;rounded=0;orthogonalLoop=1;jettySize=auto;html=1;exitX=0.5;exitY=1;exitDx=0;exitDy=0;entryX=0.5;entryY=0;entryDx=0;entryDy=0;" edge="1" parent="1" source="B_Qh2BRSdst1haslCtpr-153" target="B_Qh2BRSdst1haslCtpr-151">
          <mxGeometry relative="1" as="geometry" />
        </mxCell>
        <mxCell id="B_Qh2BRSdst1haslCtpr-153" value="" style="ellipse;html=1;shape=startState;fillColor=#000000;strokeColor=default;" vertex="1" parent="1">
          <mxGeometry x="289" y="6100" width="30" height="30" as="geometry" />
        </mxCell>
        <mxCell id="B_Qh2BRSdst1haslCtpr-156" style="edgeStyle=orthogonalEdgeStyle;rounded=0;orthogonalLoop=1;jettySize=auto;html=1;exitX=0.5;exitY=1;exitDx=0;exitDy=0;entryX=0.5;entryY=0;entryDx=0;entryDy=0;" edge="1" parent="1" target="B_Qh2BRSdst1haslCtpr-158">
          <mxGeometry relative="1" as="geometry">
            <mxPoint x="303.9999999999999" y="6650" as="sourcePoint" />
          </mxGeometry>
        </mxCell>
        <mxCell id="B_Qh2BRSdst1haslCtpr-158" value="" style="ellipse;html=1;shape=endState;fillColor=#000000;strokeColor=default;" vertex="1" parent="1">
          <mxGeometry x="289" y="6660" width="30" height="30" as="geometry" />
        </mxCell>
        <mxCell id="B_Qh2BRSdst1haslCtpr-165" style="edgeStyle=orthogonalEdgeStyle;rounded=0;orthogonalLoop=1;jettySize=auto;html=1;exitX=0.5;exitY=1;exitDx=0;exitDy=0;entryX=0.5;entryY=0;entryDx=0;entryDy=0;" edge="1" parent="1" source="B_Qh2BRSdst1haslCtpr-162" target="B_Qh2BRSdst1haslCtpr-164">
          <mxGeometry relative="1" as="geometry" />
        </mxCell>
        <mxCell id="B_Qh2BRSdst1haslCtpr-162" value="资源加入购物车" style="rounded=1;whiteSpace=wrap;html=1;" vertex="1" parent="1">
          <mxGeometry x="244" y="6350" width="120" height="60" as="geometry" />
        </mxCell>
        <mxCell id="B_Qh2BRSdst1haslCtpr-166" style="edgeStyle=orthogonalEdgeStyle;rounded=0;orthogonalLoop=1;jettySize=auto;html=1;exitX=1;exitY=0.5;exitDx=0;exitDy=0;entryX=1;entryY=0.5;entryDx=0;entryDy=0;" edge="1" parent="1" source="B_Qh2BRSdst1haslCtpr-164" target="B_Qh2BRSdst1haslCtpr-151">
          <mxGeometry relative="1" as="geometry">
            <mxPoint x="394" y="6529.999999999999" as="sourcePoint" />
            <mxPoint x="414" y="6219.999999999999" as="targetPoint" />
            <Array as="points">
              <mxPoint x="394" y="6530" />
              <mxPoint x="394" y="6531" />
              <mxPoint x="440" y="6531" />
              <mxPoint x="440" y="6220" />
            </Array>
          </mxGeometry>
        </mxCell>
        <mxCell id="B_Qh2BRSdst1haslCtpr-168" style="edgeStyle=orthogonalEdgeStyle;rounded=0;orthogonalLoop=1;jettySize=auto;html=1;exitX=0.5;exitY=1;exitDx=0;exitDy=0;entryX=0.5;entryY=0;entryDx=0;entryDy=0;" edge="1" parent="1" source="B_Qh2BRSdst1haslCtpr-164" target="B_Qh2BRSdst1haslCtpr-158">
          <mxGeometry relative="1" as="geometry" />
        </mxCell>
        <mxCell id="B_Qh2BRSdst1haslCtpr-164" value="是否继续" style="rhombus;whiteSpace=wrap;html=1;" vertex="1" parent="1">
          <mxGeometry x="264" y="6490" width="80" height="80" as="geometry" />
        </mxCell>
        <mxCell id="B_Qh2BRSdst1haslCtpr-167" value="是" style="text;html=1;align=center;verticalAlign=middle;whiteSpace=wrap;rounded=0;" vertex="1" parent="1">
          <mxGeometry x="344" y="6490" width="60" height="30" as="geometry" />
        </mxCell>
        <mxCell id="B_Qh2BRSdst1haslCtpr-169" value="否" style="text;html=1;align=center;verticalAlign=middle;whiteSpace=wrap;rounded=0;" vertex="1" parent="1">
          <mxGeometry x="249" y="6580" width="60" height="30" as="geometry" />
        </mxCell>
        <mxCell id="B_Qh2BRSdst1haslCtpr-171" style="edgeStyle=orthogonalEdgeStyle;rounded=0;orthogonalLoop=1;jettySize=auto;html=1;exitX=0.5;exitY=1;exitDx=0;exitDy=0;entryX=0.5;entryY=0;entryDx=0;entryDy=0;" edge="1" parent="1" source="B_Qh2BRSdst1haslCtpr-172" target="B_Qh2BRSdst1haslCtpr-178">
          <mxGeometry relative="1" as="geometry" />
        </mxCell>
        <mxCell id="B_Qh2BRSdst1haslCtpr-172" value="资源不想要了" style="rounded=1;whiteSpace=wrap;html=1;" vertex="1" parent="1">
          <mxGeometry x="631.97" y="6180" width="120" height="60" as="geometry" />
        </mxCell>
        <mxCell id="B_Qh2BRSdst1haslCtpr-173" style="edgeStyle=orthogonalEdgeStyle;rounded=0;orthogonalLoop=1;jettySize=auto;html=1;exitX=0.5;exitY=1;exitDx=0;exitDy=0;entryX=0.5;entryY=0;entryDx=0;entryDy=0;" edge="1" parent="1" source="B_Qh2BRSdst1haslCtpr-174" target="B_Qh2BRSdst1haslCtpr-172">
          <mxGeometry relative="1" as="geometry" />
        </mxCell>
        <mxCell id="B_Qh2BRSdst1haslCtpr-174" value="" style="ellipse;html=1;shape=startState;fillColor=#000000;strokeColor=default;" vertex="1" parent="1">
          <mxGeometry x="676.97" y="6090" width="30" height="30" as="geometry" />
        </mxCell>
        <mxCell id="B_Qh2BRSdst1haslCtpr-176" value="" style="ellipse;html=1;shape=endState;fillColor=#000000;strokeColor=default;" vertex="1" parent="1">
          <mxGeometry x="676.97" y="6650" width="30" height="30" as="geometry" />
        </mxCell>
        <mxCell id="B_Qh2BRSdst1haslCtpr-185" style="edgeStyle=orthogonalEdgeStyle;rounded=0;orthogonalLoop=1;jettySize=auto;html=1;exitX=0.5;exitY=1;exitDx=0;exitDy=0;entryX=0.5;entryY=0;entryDx=0;entryDy=0;" edge="1" parent="1" source="B_Qh2BRSdst1haslCtpr-178" target="B_Qh2BRSdst1haslCtpr-184">
          <mxGeometry relative="1" as="geometry" />
        </mxCell>
        <mxCell id="B_Qh2BRSdst1haslCtpr-178" value="清空购物车" style="rounded=1;whiteSpace=wrap;html=1;" vertex="1" parent="1">
          <mxGeometry x="631.97" y="6340" width="120" height="60" as="geometry" />
        </mxCell>
        <mxCell id="B_Qh2BRSdst1haslCtpr-186" style="edgeStyle=orthogonalEdgeStyle;rounded=0;orthogonalLoop=1;jettySize=auto;html=1;exitX=0.5;exitY=1;exitDx=0;exitDy=0;entryX=0.5;entryY=0;entryDx=0;entryDy=0;" edge="1" parent="1" source="B_Qh2BRSdst1haslCtpr-184" target="B_Qh2BRSdst1haslCtpr-176">
          <mxGeometry relative="1" as="geometry" />
        </mxCell>
        <mxCell id="B_Qh2BRSdst1haslCtpr-184" value="删除购物车记录" style="rounded=1;whiteSpace=wrap;html=1;" vertex="1" parent="1">
          <mxGeometry x="632" y="6480" width="120" height="60" as="geometry" />
        </mxCell>
      </root>
    </mxGraphModel>
  </diagram>
</mxfile>
